<svg width="35" height="36" viewBox="0 0 35 36" fill="none" xmlns="http://www.w3.org/2000/svg">
<path d="M10.7373 34.8283H24.2629C31.0595 34.8283 32.2769 32.1063 32.6319 28.7925L33.8999 15.2669C34.3564 11.1416 33.1729 7.77706 25.9536 7.77706H9.04661C1.82732 7.77706 0.643825 11.1416 1.10031 15.2669L2.36834 28.7925C2.72339 32.1063 3.94069 34.8283 10.7373 34.8283Z" stroke="#FD5823" stroke-width="2" stroke-miterlimit="10" stroke-linecap="round" stroke-linejoin="round"/>
<path d="M10.7371 7.77723V6.42467C10.7371 3.43212 10.7371 1.01442 16.1474 1.01442H18.8525C24.2627 1.01442 24.2627 3.43212 24.2627 6.42467V7.77723" stroke="#FD5823" stroke-width="2.02884" stroke-miterlimit="10" stroke-linecap="round" stroke-linejoin="round"/>
<path d="M20.881 19.612V21.3027C20.881 21.3196 20.881 21.3196 20.881 21.3365C20.881 23.1794 20.8641 24.6841 17.4996 24.6841C14.152 24.6841 14.1182 23.1963 14.1182 21.3534V19.612C14.1182 17.9213 14.1182 17.9213 15.8089 17.9213H19.1903C20.881 17.9213 20.881 17.9213 20.881 19.612Z" stroke="#FD5823" stroke-width="2" stroke-miterlimit="10" stroke-linecap="round" stroke-linejoin="round"/>
<path d="M33.8152 16.2307C29.9097 19.0711 25.4462 20.7618 20.8813 21.3367" stroke="#FD5823" stroke-width="2.02884" stroke-miterlimit="10" stroke-linecap="round" stroke-linejoin="round"/>
<path d="M1.641 16.6869C5.44508 19.2906 9.73947 20.863 14.1184 21.3533" stroke="#FD5823" stroke-width="2.02884" stroke-miterlimit="10" stroke-linecap="round" stroke-linejoin="round"/>
</svg>
